<svg width="517.8792968749999px" height="128.48000183105466px" xmlns="http://www.w3.org/2000/svg" viewBox="-8.939648437499955 10.759999084472668 517.8792968749999 128.48000183105466" style="background: rgba(0, 0, 0, 0);" preserveAspectRatio="xMidYMid"><defs><linearGradient id="editing-rainbow-gradient" x1="0" x2="1" y1="0.5" y2="0.5" gradientUnits="objectBoundingBox"><stop offset="0.00" stop-color="#f00"></stop><stop offset="0.17" stop-color="#f90"></stop><stop offset="0.34" stop-color="#ff4"></stop><stop offset="0.51" stop-color="#9f0"></stop><stop offset="0.68" stop-color="#09f"></stop><stop offset="0.85" stop-color="#00f"></stop><stop offset="1.00" stop-color="#90f"></stop></linearGradient><filter id="editing-rainbow" x="-100%" y="-100%" width="300%" height="300%"><feMorphology operator="dilate" radius="1,2" in="SourceGraphic" result="dilate"></feMorphology><feColorMatrix in="dilate" result="color" type="matrix" values="0.7 0 0 0 0  0 0.7 0 0 0  0 0 0.7 0 0  0 0 0 1 0"></feColorMatrix><feOffset dy="2" result="offset"></feOffset><feGaussianBlur stdDeviation="3"></feGaussianBlur><feOffset dy="3"></feOffset><feColorMatrix result="blur" type="matrix" values="0.7 0 0 0 0  0 0.7 0 0 0  0 0 0.7 0 0  0 0 0 1 0"></feColorMatrix><feMerge><feMergeNode in="blur"></feMergeNode><feMergeNode in="offset"></feMergeNode><feMergeNode in="SourceGraphic"></feMergeNode></feMerge></filter></defs><g filter="url(#editing-rainbow)"><g transform="translate(73.82348144054413, 104.28000259399414)"><path d="M57.60-43.46L57.60-43.46L57.60-43.46Q57.60-45.70 55.55-47.68L55.55-47.68L55.55-47.68Q52.61-50.50 47.42-50.50L47.42-50.50L47.42-50.50Q42.88-50.50 37.38-48.51L37.38-48.51L37.38-48.51Q34.50-47.49 32.38-45.70L32.38-45.70L32.38-45.70Q29.12-42.88 29.12-40.06L29.12-40.06L29.12-40.06Q29.12-36.29 33.92-33.28L33.92-33.28L33.92-33.28Q35.71-32.19 41.12-29.73L41.12-29.73L41.12-29.73Q46.53-27.26 49.02-25.73L49.02-25.73L49.02-25.73Q52.80-23.42 54.24-20.80L54.24-20.80L54.24-20.80Q55.68-18.18 55.68-15.94L55.68-15.94L55.68-15.94Q55.68-12.74 53.57-9.41L53.57-9.41L53.57-9.41Q49.86-3.46 42.69 0.83L42.69 0.83L42.69 0.83Q34.43 5.82 22.78 5.82L22.78 5.82L22.78 5.82Q11.58 5.82 4.99 0.13L4.99 0.13L4.99 0.13Q-0.13-4.22-0.13-11.07L-0.13-11.07L-0.13-11.07Q-0.13-15.42 3.04-20.67L3.04-20.67L3.04-20.67Q6.21-25.92 10.82-28.10L10.82-28.10L10.82-28.10Q11.78-28.48 12.26-28.35L12.26-28.35L12.26-28.35Q12.74-28.22 11.46-27.14L11.46-27.14L11.46-27.14Q8.70-24.96 7.04-22.34L7.04-22.34L7.04-22.34Q3.46-16.70 3.46-10.11L3.46-10.11L3.46-10.11Q3.46-5.76 5.89-2.50L5.89-2.50L5.89-2.50Q10.24 3.33 20.99 4.10L20.99 4.10L20.99 4.10Q22.21 4.22 24.61 4.22L24.61 4.22L24.61 4.22Q27.01 4.22 31.14 3.36L31.14 3.36L31.14 3.36Q35.26 2.50 39.10 0.51L39.10 0.51L39.10 0.51Q47.36-3.84 49.79-10.75L49.79-10.75L49.79-10.75Q50.56-12.80 50.56-14.72L50.56-14.72L50.56-14.72Q50.56-19.07 46.66-22.40L46.66-22.40L46.66-22.40Q44.54-24.06 38.05-26.85L38.05-26.85L38.05-26.85Q31.55-29.63 29.31-31.10L29.31-31.10L29.31-31.10Q24.38-34.43 24.38-38.98L24.38-38.98L24.38-38.98Q24.38-42.94 28.80-46.72L28.80-46.72L28.80-46.72Q35.14-52.10 46.72-52.10L46.72-52.10L46.72-52.10Q52.16-52.10 55.58-50.46L55.58-50.46L55.58-50.46Q59.01-48.83 59.78-45.57L59.78-45.57L59.78-45.57Q59.90-44.93 59.90-44.29L59.90-44.29L59.90-44.29Q59.90-41.79 57.60-39.81L57.60-39.81L57.60-39.81Q56-38.53 53.31-37.76L53.31-37.76L53.31-37.76Q52.16-37.44 52.03-38.02L52.03-38.02L52.03-38.02Q51.90-38.85 53.63-39.04L53.63-39.04L53.63-39.04Q56.70-39.42 57.41-42.11L57.41-42.11L57.41-42.11Q57.60-42.82 57.60-43.46ZM72.96-22.40L72.96-22.40L72.96-22.40Q77.63-22.40 77.63-16.51L77.63-16.51L77.63-16.51Q77.63-13.82 76.22-10.75L76.22-10.75L76.22-10.75Q74.43-6.59 70.85-3.20L70.85-3.20L70.85-3.20Q71.68-1.60 73.86-1.60L73.86-1.60L73.86-1.60Q75.58-1.60 77.12-3.33L77.12-3.33L77.12-3.33Q79.04-5.31 79.87-6.82L79.87-6.82L79.87-6.82Q80.70-8.32 81.09-9.02L81.09-9.02L81.09-9.02Q81.47-9.73 82.08-11.04L82.08-11.04L82.08-11.04Q82.69-12.35 82.82-12.64L82.82-12.64L82.82-12.64Q82.94-12.93 83.26-12.93L83.26-12.93L83.26-12.93Q83.90-12.99 83.90-12.48L83.90-12.48L83.90-12.48Q83.90-12.29 83.78-12.03L83.78-12.03L83.39-11.14L83.39-11.14Q83.01-10.24 82.82-9.86L82.82-9.86L82.82-9.86Q82.62-9.47 82.14-8.48L82.14-8.48L82.14-8.48Q81.66-7.49 81.31-6.91L81.31-6.91L81.31-6.91Q80.96-6.34 80.35-5.38L80.35-5.38L80.35-5.38Q79.74-4.42 79.26-3.84L79.26-3.84L79.26-3.84Q78.78-3.26 78.08-2.56L78.08-2.56L78.08-2.56Q77.38-1.86 76.74-1.47L76.74-1.47L76.74-1.47Q75.14-0.51 73.73-0.51L73.73-0.51L73.73-0.51Q71.10-0.51 69.63-2.18L69.63-2.18L69.63-2.18Q66.69 0 64.19 0L64.19 0L64.19 0Q59.52 0 59.52-5.89L59.52-5.89L59.52-5.89Q59.52-8.58 60.93-11.65L60.93-11.65L60.93-11.65Q62.85-16.13 66.34-19.26L66.34-19.26L66.34-19.26Q69.82-22.40 72.96-22.40ZM73.66-20.42L73.66-20.42L73.66-20.42Q71.94-20.42 69.57-18.11L69.57-18.11L69.57-18.11Q67.20-15.81 65.34-11.84L65.34-11.84L65.34-11.84Q63.10-7.23 63.10-4.29L63.10-4.29L63.10-4.29Q63.10-1.34 65.34-1.34L65.34-1.34L65.34-1.34Q66.94-1.34 68.93-3.07L68.93-3.07L68.93-3.07Q67.90-4.54 67.90-6.21L67.90-6.21L67.90-6.21Q68.03-8.96 70.14-8.96L70.14-8.96L70.14-8.96Q70.98-8.96 71.52-8.38L71.52-8.38L71.52-8.38Q72.06-7.81 72.06-7.33L72.06-7.33L72.06-7.33Q72.06-6.85 71.94-6.34L71.94-6.34L71.94-6.34Q73.02-7.94 74.43-10.88L74.43-10.88L74.43-10.88Q76.03-14.14 76.03-17.28L76.03-17.28L76.03-17.28Q76.03-20.42 73.66-20.42ZM99.78-22.34L99.78-22.34L99.46-21.18L99.46-21.18Q96.19-11.01 93.44-6.34L93.44-6.34L93.44-6.34Q89.41 0.45 84.99 0.45L84.99 0.45L84.99 0.45Q81.41 0.45 81.41-3.01L81.41-3.01L81.41-3.01Q81.41-5.63 83.33-11.14L83.33-11.14L83.33-11.14Q82.69-10.11 82.34-10.46L82.34-10.46L82.34-10.46Q81.98-10.82 82.18-11.33L82.18-11.33L83.33-13.50L83.33-13.50Q84.54-16 84.54-18.50L84.54-18.50L84.54-18.50Q84.54-20.99 83.52-21.44L83.52-21.44L83.52-21.44Q87.36-22.08 88-22.05L88-22.05L88-22.05Q88.64-22.02 88.80-21.50L88.80-21.50L88.80-21.50Q88.96-20.99 88.96-20.35L88.96-20.35L88.96-20.35Q88.96-16.45 86.94-11.14L86.94-11.14L86.94-11.14Q84.93-5.82 84.93-4L84.93-4L84.93-4Q84.93-2.18 85.50-1.89L85.50-1.89L85.50-1.89Q86.08-1.60 86.66-1.60L86.66-1.60L86.66-1.60Q88.32-1.60 90.43-4.29L90.43-4.29L90.43-4.29Q92.54-6.98 94.66-12.22L94.66-12.22L94.66-12.22Q93.76-14.27 93.76-15.84L93.76-15.84L93.76-15.84Q93.76-17.41 94.14-18.62L94.14-18.62L94.14-18.62Q95.30-22.27 97.79-23.17L97.79-23.17L97.79-23.17Q98.30-23.36 98.75-23.36L98.75-23.36L98.75-23.36Q99.78-23.36 99.78-22.34ZM108.29-24.90L108.29-24.90L108.29-24.90Q107.39-24.13 106.30-24.13L106.30-24.13L106.30-24.13Q105.22-24.13 104.58-24.90L104.58-24.90L104.58-24.90Q103.94-25.66 104.06-26.75L104.06-26.75L104.06-26.75Q104.26-27.84 105.15-28.61L105.15-28.61L105.15-28.61Q106.05-29.38 107.14-29.38L107.14-29.38L107.14-29.38Q108.22-29.38 108.90-28.61L108.90-28.61L108.90-28.61Q109.57-27.84 109.38-26.75L109.38-26.75L109.38-26.75Q109.18-25.66 108.29-24.90ZM102.02-1.41L102.02-1.41L102.02-1.41Q103.23-1.41 104.58-2.62L104.58-2.62L104.58-2.62Q106.94-4.99 110.59-12.29L110.59-12.29L110.59-12.29Q111.04-13.25 111.49-12.86L111.49-12.86L111.49-12.86Q111.62-12.74 111.62-12.45L111.62-12.45L111.62-12.45Q111.62-12.16 111.10-11.04L111.10-11.04L111.10-11.04Q110.59-9.92 110.18-9.02L110.18-9.02L110.18-9.02Q109.76-8.13 108.58-6.11L108.58-6.11L108.58-6.11Q107.39-4.10 106.43-3.01L106.43-3.01L106.43-3.01Q103.81 0 101.47 0L101.47 0L101.47 0Q99.14 0 98.11-1.41L98.11-1.41L98.11-1.41Q97.09-2.82 97.09-4.54L97.09-4.54L97.09-4.54Q97.09-6.27 97.92-8.32L97.92-8.32L102.02-18.75L102.02-18.75Q102.14-19.14 102.14-19.78L102.14-19.78L102.14-19.78Q102.14-20.42 101.38-21.44L101.38-21.44L104.90-21.50L104.90-21.50Q106.37-21.50 106.62-20.96L106.62-20.96L106.62-20.96Q106.88-20.42 106.24-19.26L106.24-19.26L101.12-7.30L101.12-7.30Q100.03-4.93 100.03-3.26L100.03-3.26L100.03-3.26Q100.03-1.41 102.02-1.41ZM113.47-9.86L113.47-9.86L113.47-9.86Q112.58-7.68 112.58-4.99L112.58-4.99L112.58-4.99Q112.58-3.20 113.38-2.14L113.38-2.14L113.38-2.14Q114.18-1.09 115.65-1.09L115.65-1.09L115.65-1.09Q121.47-1.09 126.21-12.03L126.21-12.03L126.21-12.03Q126.66-13.06 127.30-12.93L127.30-12.93L127.30-12.93Q127.55-12.86 127.55-12.61L127.55-12.61L127.55-12.61Q127.55-12.35 126.11-9.25L126.11-9.25L126.11-9.25Q124.67-6.14 123.20-4.22L123.20-4.22L123.20-4.22Q119.94 0.26 115.14 0.26L115.14 0.26L115.14 0.26Q112.58 0.26 110.78-1.41L110.78-1.41L110.78-1.41Q108.99-3.07 108.99-5.95L108.99-5.95L108.99-5.95Q108.99-8.83 110.37-12.06L110.37-12.06L110.37-12.06Q111.74-15.30 114.11-18.08L114.11-18.08L114.11-18.08Q116.48-20.86 119.55-22.14L119.55-22.14L119.55-22.14Q121.02-22.78 122.37-22.78L122.37-22.78L122.37-22.78Q123.71-22.78 124.86-22.02L124.86-22.02L124.86-22.02Q125.95-21.12 125.95-20.03L125.95-20.03L125.95-20.03Q125.95-16.19 121.34-12.67L121.34-12.67L121.34-12.67Q119.94-11.58 117.38-10.72L117.38-10.72L117.38-10.72Q114.82-9.86 113.47-9.86ZM124.22-20.10L124.22-20.10L124.22-20.10Q124.22-21.38 123.20-21.38L123.20-21.38L123.20-21.38Q121.41-21.38 117.76-16.96L117.76-16.96L117.76-16.96Q115.58-14.27 113.92-10.94L113.92-10.94L113.92-10.94Q115.01-10.94 117.09-11.71L117.09-11.71L117.09-11.71Q119.17-12.48 120.70-13.76L120.70-13.76L120.70-13.76Q124.22-16.77 124.22-20.10ZM124.80-5.12L124.80-5.12L124.80-5.12Q124.80-10.43 129.92-22.91L129.92-22.91L126.59-22.91L126.59-22.91Q126.27-22.91 126.18-23.26L126.18-23.26L126.18-23.26Q126.08-23.62 126.24-23.97L126.24-23.97L126.24-23.97Q126.40-24.32 126.72-24.32L126.72-24.32L130.56-24.32L130.56-24.32Q132.86-29.38 134.85-32.77L134.85-32.77L134.85-32.77Q136.83-36.16 138.50-37.34L138.50-37.34L138.50-37.34Q140.16-38.53 140.90-38.53L140.90-38.53L140.90-38.53Q141.63-38.53 141.95-38.40L141.95-38.40L141.95-38.40Q143.42-37.70 143.42-35.49L143.42-35.49L143.42-35.49Q143.42-33.28 141.95-30.14L141.95-30.14L141.95-30.14Q140.48-27.01 139.07-24.32L139.07-24.32L142.14-24.32L142.14-24.32Q142.46-24.32 142.56-23.97L142.56-23.97L142.56-23.97Q142.66-23.62 142.50-23.26L142.50-23.26L142.50-23.26Q142.34-22.91 142.02-22.91L142.02-22.91L138.30-22.91L138.30-22.91Q134.78-16.96 129.79-12.35L129.79-12.35L128.32-5.82L128.32-5.82Q128.13-4.99 128.13-4.19L128.13-4.19L128.13-4.19Q128.13-3.39 128.58-2.56L128.58-2.56L128.58-2.56Q129.02-1.73 129.98-1.73L129.98-1.73L129.98-1.73Q131.07-1.73 132.42-2.50L132.42-2.50L132.42-2.50Q135.49-4.80 139.20-12.16L139.20-12.16L139.20-12.16Q139.46-12.74 139.81-12.86L139.81-12.86L139.81-12.86Q140.16-12.99 140.22-12.70L140.22-12.70L140.22-12.70Q140.29-12.42 140.03-11.78L140.03-11.78L140.03-11.78Q137.92-7.36 136.70-5.50L136.70-5.50L136.70-5.50Q133.25 0.06 129.34 0.06L129.34 0.06L129.34 0.06Q127.36 0.06 126.08-1.41L126.08-1.41L126.08-1.41Q124.80-2.88 124.80-5.12ZM134.46-24.32L137.66-24.32L137.66-24.32Q141.89-31.87 141.89-34.82L141.89-34.82L141.89-34.82Q141.89-36.10 141.44-36.10L141.44-36.10L141.44-36.10Q140.74-36.10 139.30-34.05L139.30-34.05L139.30-34.05Q137.86-32 134.46-24.32L134.46-24.32ZM136.83-22.91L136.83-22.91L133.82-22.91L133.82-22.91Q133.06-21.12 130.37-14.40L130.37-14.40L130.37-14.40Q133.82-17.98 136.83-22.91ZM176.38 6.46L176.38 6.46L176.38 6.46Q171.39 6.46 166.82 4.51L166.82 4.51L166.82 4.51Q162.24 2.56 159.52-1.22L159.52-1.22L159.52-1.22Q156.80-4.99 156.22-9.47L156.22-9.47L156.22-9.47Q155.97-11.39 155.97-13.70L155.97-13.70L155.97-13.70Q155.97-16 156.54-19.78L156.54-19.78L156.54-19.78Q157.12-23.55 159.07-27.97L159.07-27.97L159.07-27.97Q161.02-32.38 163.71-35.78L163.71-35.78L163.71-35.78Q162.62-40.06 162.62-43.68L162.62-43.68L162.62-43.68Q162.62-47.30 163.46-50.43L163.46-50.43L163.46-50.43Q163.58-50.94 163.87-51.17L163.87-51.17L163.87-51.17Q164.16-51.39 164.29-51.39L164.29-51.39L164.29-51.39Q164.93-51.39 164.67-49.82L164.67-49.82L164.67-49.82Q164.42-48.26 164.42-45.34L164.42-45.34L164.42-45.34Q164.42-42.43 165.25-37.95L165.25-37.95L165.25-37.95Q170.37-44.54 177.28-47.55L177.28-47.55L177.28-47.55Q182.59-49.86 188.42-49.86L188.42-49.86L188.42-49.86Q190.08-49.86 191.87-49.66L191.87-49.66L191.87-49.66Q201.73-48.58 205.18-42.11L205.18-42.11L205.18-42.11Q206.59-39.42 206.59-36.54L206.59-36.54L206.59-36.54Q206.59-33.66 205.25-30.59L205.25-30.59L205.25-30.59Q202.43-24.45 195.58-21.50L195.58-21.50L195.58-21.50Q191.17-19.58 185.92-19.58L185.92-19.58L185.92-19.58Q183.68-19.58 181.38-19.90L181.38-19.90L181.38-19.90Q169.92-21.57 165.50-30.78L165.50-30.78L165.50-30.78Q163.97-28.61 162.34-23.49L162.34-23.49L162.34-23.49Q160.70-18.37 160.45-15.62L160.45-15.62L160.45-15.62Q160.19-12.86 160.19-11.01L160.19-11.01L160.19-11.01Q160.19-9.15 160.45-7.17L160.45-7.17L160.45-7.17Q160.90-3.65 163.14-0.80L163.14-0.80L163.14-0.80Q165.38 2.05 169.12 3.17L169.12 3.17L169.12 3.17Q172.86 4.29 175.62 4.29L175.62 4.29L175.62 4.29Q184.51 4.29 190.78 0.58L190.78 0.58L190.78 0.58Q194.56-1.66 196.70-4.51L196.70-4.51L196.70-4.51Q198.85-7.36 201.28-12.35L201.28-12.35L201.28-12.35Q201.66-13.18 202.08-12.93L202.08-12.93L202.08-12.93Q202.50-12.67 202.05-11.71L202.05-11.71L202.05-11.71Q199.62-6.78 197.54-3.90L197.54-3.90L197.54-3.90Q195.46-1.02 191.87 1.47L191.87 1.47L191.87 1.47Q184.70 6.46 176.38 6.46ZM166.78-32.83L166.78-32.83L166.78-32.83Q171.33-21.25 185.73-21.25L185.73-21.25L185.73-21.25Q193.86-21.25 198.75-25.79L198.75-25.79L198.75-25.79Q203.65-30.34 203.65-36.10L203.65-36.10L203.65-36.10Q203.65-41.86 198.66-45.06L198.66-45.06L198.66-45.06Q194.94-47.42 189.50-47.42L189.50-47.42L189.50-47.42Q184.06-47.42 178.56-44.29L178.56-44.29L178.56-44.29Q171.65-40.26 166.78-32.83ZM220.67-17.34L220.67-17.34Q219.52-16.19 217.41-12.13L217.41-12.13L217.41-12.13Q215.30-8.06 214.88-6.05L214.88-6.05L214.88-6.05Q214.46-4.03 214.46-2.78L214.46-2.78L214.46-2.78Q214.46-1.54 215.42-1.54L215.42-1.54L215.42-1.54Q216.64-1.54 218.43-3.78L218.43-3.78L218.43-3.78Q221.06-7.04 223.62-12.29L223.62-12.29L223.62-12.29Q223.87-12.86 224.19-12.93L224.19-12.93L224.19-12.93Q224.70-13.12 224.70-12.54L224.70-12.54L224.70-12.54Q224.70-12.22 224.51-11.78L224.51-11.78L224.51-11.78Q218.62 0.13 214.59 0.13L214.59 0.13L214.59 0.13Q212.74 0.13 211.58-1.66L211.58-1.66L211.58-1.66Q211.01-2.62 211.01-4.22L211.01-4.22L211.01-4.22Q211.01-5.82 211.65-8.13L211.65-8.13L211.65-8.13Q206.53 0.13 202.82 0.13L202.82 0.13L202.82 0.13Q201.79 0.13 200.96-0.51L200.96-0.51L200.96-0.51Q199.04-1.86 199.04-5.12L199.04-5.12L199.04-5.12Q199.04-11.39 204.48-17.86L204.48-17.86L204.48-17.86Q207.55-21.44 212.03-22.53L212.03-22.53L212.03-22.53Q213.25-22.85 214.34-22.85L214.34-22.85L214.34-22.85Q217.28-22.85 219.33-20.80L219.33-20.80L219.33-20.80Q219.97-20.10 219.71-19.46L219.71-19.46L219.71-19.46Q219.46-18.82 218.62-18.94L218.62-18.94L218.62-18.94Q217.92-21.25 215.55-21.25L215.55-21.25L215.55-21.25Q212.80-21.25 208.77-16.90L208.77-16.90L208.77-16.90Q206.46-14.34 204.48-10.88L204.48-10.88L204.48-10.88Q201.98-6.72 201.98-4.22L201.98-4.22L201.98-4.22Q201.98-1.73 203.58-1.73L203.58-1.73L203.58-1.73Q207.42-1.73 213.63-13.50L213.63-13.50L213.63-13.50Q214.85-15.87 215.68-16.74L215.68-16.74L215.68-16.74Q216.51-17.60 217.79-17.60L217.79-17.60L217.79-17.60Q218.05-17.60 219.10-17.41L219.10-17.41L219.10-17.41Q220.16-17.22 220.67-17.34L220.67-17.34ZM232.19-25.66L232.19-25.66L232.19-25.66Q232.19-22.78 228.54-20.22L228.54-20.22L228.54-20.22Q229.82-20.16 231.97-20.16L231.97-20.16L231.97-20.16Q234.11-20.16 237.38-20.48L237.38-20.48L237.38-20.48Q237.50-20.29 237.50-19.46L237.50-19.46L237.50-19.46Q237.50-18.62 236.74-16.99L236.74-16.99L236.74-16.99Q235.97-15.36 235.36-14.18L235.36-14.18L235.36-14.18Q234.75-12.99 234.21-11.94L234.21-11.94L234.21-11.94Q233.66-10.88 232.99-9.34L232.99-9.34L232.99-9.34Q232.32-7.81 231.87-6.53L231.87-6.53L231.87-6.53Q230.27-1.66 232.38-1.66L232.38-1.66L232.38-1.66Q235.07-1.66 240.32-12.35L240.32-12.35L240.32-12.35Q240.77-13.18 241.06-12.99L241.06-12.99L241.06-12.99Q241.34-12.80 241.34-12.51L241.34-12.51L241.34-12.51Q241.34-12.22 240.51-10.53L240.51-10.53L240.51-10.53Q239.68-8.83 238.72-7.04L238.72-7.04L238.72-7.04Q237.76-5.25 235.71-2.88L235.71-2.88L235.71-2.88Q233.28 0.06 231.04 0.06L231.04 0.06L231.04 0.06Q228.54 0.06 227.58-2.94L227.58-2.94L227.58-2.94Q227.39-3.52 227.39-4.67L227.39-4.67L227.39-4.67Q227.39-5.82 228.13-7.74L228.13-7.74L228.13-7.74Q228.86-9.66 230.46-12.42L230.46-12.42L230.46-12.42Q232.06-15.17 232.26-15.65L232.26-15.65L232.26-15.65Q232.45-16.13 232.45-16.58L232.45-16.58L232.45-16.58Q232.45-18.56 227.33-18.69L227.33-18.69L226.56-16.64L226.56-16.64Q222.53-6.08 218.82-2.50L218.82-2.50L218.82-2.50Q218.18-1.92 218.18-2.88L218.18-2.88L218.18-2.88Q218.18-3.07 218.30-3.33L218.30-3.33L218.30-3.33Q221.89-8.06 224.51-14.53L224.51-14.53L224.51-14.53Q227.14-20.99 228.16-26.82L228.16-26.82L228.16-26.82Q228.54-28.80 229.95-28.80L229.95-28.80L229.95-28.80Q231.36-28.80 232-27.01L232-27.01L232-27.01Q232.19-26.43 232.19-25.66ZM238.66-5.12L238.66-5.12L238.66-5.12Q238.66-10.43 243.78-22.91L243.78-22.91L240.45-22.91L240.45-22.91Q240.13-22.91 240.03-23.26L240.03-23.26L240.03-23.26Q239.94-23.62 240.10-23.97L240.10-23.97L240.10-23.97Q240.26-24.32 240.58-24.32L240.58-24.32L244.42-24.32L244.42-24.32Q246.72-29.38 248.70-32.77L248.70-32.77L248.70-32.77Q250.69-36.16 252.35-37.34L252.35-37.34L252.35-37.34Q254.02-38.53 254.75-38.53L254.75-38.53L254.75-38.53Q255.49-38.53 255.81-38.40L255.81-38.40L255.81-38.40Q257.28-37.70 257.28-35.49L257.28-35.49L257.28-35.49Q257.28-33.28 255.81-30.14L255.81-30.14L255.81-30.14Q254.34-27.01 252.93-24.32L252.93-24.32L256-24.32L256-24.32Q256.32-24.32 256.42-23.97L256.42-23.97L256.42-23.97Q256.51-23.62 256.35-23.26L256.35-23.26L256.35-23.26Q256.19-22.91 255.87-22.91L255.87-22.91L252.16-22.91L252.16-22.91Q248.64-16.96 243.65-12.35L243.65-12.35L242.18-5.82L242.18-5.82Q241.98-4.99 241.98-4.19L241.98-4.19L241.98-4.19Q241.98-3.39 242.43-2.56L242.43-2.56L242.43-2.56Q242.88-1.73 243.84-1.73L243.84-1.73L243.84-1.73Q244.93-1.73 246.27-2.50L246.27-2.50L246.27-2.50Q249.34-4.80 253.06-12.16L253.06-12.16L253.06-12.16Q253.31-12.74 253.66-12.86L253.66-12.86L253.66-12.86Q254.02-12.99 254.08-12.70L254.08-12.70L254.08-12.70Q254.14-12.42 253.89-11.78L253.89-11.78L253.89-11.78Q251.78-7.36 250.56-5.50L250.56-5.50L250.56-5.50Q247.10 0.06 243.20 0.06L243.20 0.06L243.20 0.06Q241.22 0.06 239.94-1.41L239.94-1.41L239.94-1.41Q238.66-2.88 238.66-5.12ZM248.32-24.32L251.52-24.32L251.52-24.32Q255.74-31.87 255.74-34.82L255.74-34.82L255.74-34.82Q255.74-36.10 255.30-36.10L255.30-36.10L255.30-36.10Q254.59-36.10 253.15-34.05L253.15-34.05L253.15-34.05Q251.71-32 248.32-24.32L248.32-24.32ZM250.69-22.91L250.69-22.91L247.68-22.91L247.68-22.91Q246.91-21.12 244.22-14.40L244.22-14.40L244.22-14.40Q247.68-17.98 250.69-22.91ZM264.70-22.40L264.70-22.40L264.70-22.40Q269.38-22.40 269.38-16.51L269.38-16.51L269.38-16.51Q269.38-13.82 267.97-10.75L267.97-10.75L267.97-10.75Q266.18-6.59 262.59-3.20L262.59-3.20L262.59-3.20Q263.42-1.60 265.60-1.60L265.60-1.60L265.60-1.60Q267.33-1.60 268.86-3.33L268.86-3.33L268.86-3.33Q270.78-5.31 271.62-6.82L271.62-6.82L271.62-6.82Q272.45-8.32 272.83-9.02L272.83-9.02L272.83-9.02Q273.22-9.73 273.82-11.04L273.82-11.04L273.82-11.04Q274.43-12.35 274.56-12.64L274.56-12.64L274.56-12.64Q274.69-12.93 275.01-12.93L275.01-12.93L275.01-12.93Q275.65-12.99 275.65-12.48L275.65-12.48L275.65-12.48Q275.65-12.29 275.52-12.03L275.52-12.03L275.14-11.14L275.14-11.14Q274.75-10.24 274.56-9.86L274.56-9.86L274.56-9.86Q274.37-9.47 273.89-8.48L273.89-8.48L273.89-8.48Q273.41-7.49 273.06-6.91L273.06-6.91L273.06-6.91Q272.70-6.34 272.10-5.38L272.10-5.38L272.10-5.38Q271.49-4.42 271.01-3.84L271.01-3.84L271.01-3.84Q270.53-3.26 269.82-2.56L269.82-2.56L269.82-2.56Q269.12-1.86 268.48-1.47L268.48-1.47L268.48-1.47Q266.88-0.51 265.47-0.51L265.47-0.51L265.47-0.51Q262.85-0.51 261.38-2.18L261.38-2.18L261.38-2.18Q258.43 0 255.94 0L255.94 0L255.94 0Q251.26 0 251.26-5.89L251.26-5.89L251.26-5.89Q251.26-8.58 252.67-11.65L252.67-11.65L252.67-11.65Q254.59-16.13 258.08-19.26L258.08-19.26L258.08-19.26Q261.57-22.40 264.70-22.40ZM265.41-20.42L265.41-20.42L265.41-20.42Q263.68-20.42 261.31-18.11L261.31-18.11L261.31-18.11Q258.94-15.81 257.09-11.84L257.09-11.84L257.09-11.84Q254.85-7.23 254.85-4.29L254.85-4.29L254.85-4.29Q254.85-1.34 257.09-1.34L257.09-1.34L257.09-1.34Q258.69-1.34 260.67-3.07L260.67-3.07L260.67-3.07Q259.65-4.54 259.65-6.21L259.65-6.21L259.65-6.21Q259.78-8.96 261.89-8.96L261.89-8.96L261.89-8.96Q262.72-8.96 263.26-8.38L263.26-8.38L263.26-8.38Q263.81-7.81 263.81-7.33L263.81-7.33L263.81-7.33Q263.81-6.85 263.68-6.34L263.68-6.34L263.68-6.34Q264.77-7.94 266.18-10.88L266.18-10.88L266.18-10.88Q267.78-14.14 267.78-17.28L267.78-17.28L267.78-17.28Q267.78-20.42 265.41-20.42ZM286.14-22.40L286.14-22.40L286.14-22.40Q290.82-22.40 290.82-16.51L290.82-16.51L290.82-16.51Q290.82-13.82 289.41-10.75L289.41-10.75L289.41-10.75Q287.62-6.59 284.03-3.20L284.03-3.20L284.03-3.20Q284.86-1.60 287.04-1.60L287.04-1.60L287.04-1.60Q288.77-1.60 290.30-3.33L290.30-3.33L290.30-3.33Q292.22-5.31 293.06-6.82L293.06-6.82L293.06-6.82Q293.89-8.32 294.27-9.02L294.27-9.02L294.27-9.02Q294.66-9.73 295.26-11.04L295.26-11.04L295.26-11.04Q295.87-12.35 296-12.64L296-12.64L296-12.64Q296.13-12.93 296.45-12.93L296.45-12.93L296.45-12.93Q297.09-12.99 297.09-12.48L297.09-12.48L297.09-12.48Q297.09-12.29 296.96-12.03L296.96-12.03L296.58-11.14L296.58-11.14Q296.19-10.24 296-9.86L296-9.86L296-9.86Q295.81-9.47 295.33-8.48L295.33-8.48L295.33-8.48Q294.85-7.49 294.50-6.91L294.50-6.91L294.50-6.91Q294.14-6.34 293.54-5.38L293.54-5.38L293.54-5.38Q292.93-4.42 292.45-3.84L292.45-3.84L292.45-3.84Q291.97-3.26 291.26-2.56L291.26-2.56L291.26-2.56Q290.56-1.86 289.92-1.47L289.92-1.47L289.92-1.47Q288.32-0.51 286.91-0.51L286.91-0.51L286.91-0.51Q284.29-0.51 282.82-2.18L282.82-2.18L282.82-2.18Q279.87 0 277.38 0L277.38 0L277.38 0Q272.70 0 272.70-5.89L272.70-5.89L272.70-5.89Q272.70-8.58 274.11-11.65L274.11-11.65L274.11-11.65Q276.03-16.13 279.52-19.26L279.52-19.26L279.52-19.26Q283.01-22.40 286.14-22.40ZM286.85-20.42L286.85-20.42L286.85-20.42Q285.12-20.42 282.75-18.11L282.75-18.11L282.75-18.11Q280.38-15.81 278.53-11.84L278.53-11.84L278.53-11.84Q276.29-7.23 276.29-4.29L276.29-4.29L276.29-4.29Q276.29-1.34 278.53-1.34L278.53-1.34L278.53-1.34Q280.13-1.34 282.11-3.07L282.11-3.07L282.11-3.07Q281.09-4.54 281.09-6.21L281.09-6.21L281.09-6.21Q281.22-8.96 283.33-8.96L283.33-8.96L283.33-8.96Q284.16-8.96 284.70-8.38L284.70-8.38L284.70-8.38Q285.25-7.81 285.25-7.33L285.25-7.33L285.25-7.33Q285.25-6.85 285.12-6.34L285.12-6.34L285.12-6.34Q286.21-7.94 287.62-10.88L287.62-10.88L287.62-10.88Q289.22-14.14 289.22-17.28L289.22-17.28L289.22-17.28Q289.22-20.42 286.85-20.42ZM315.26-20.99L315.26-20.99L315.26-20.99Q307.39-7.17 307.39-2.94L307.39-2.94L307.39-2.94Q307.39-1.28 308.61-1.28L308.61-1.28L308.61-1.28Q311.87-1.28 317.38-12.35L317.38-12.35L317.38-12.35Q317.76-13.25 318.14-13.06L318.14-13.06L318.14-13.06Q318.53-12.86 318.53-12.54L318.53-12.54L318.53-12.54Q318.53-12.22 318.27-11.78L318.27-11.78L318.27-11.78Q314.88-4.93 312.54-2.34L312.54-2.34L312.54-2.34Q310.21 0.26 307.87 0.26L307.87 0.26L307.87 0.26Q305.54 0.26 304.32-1.54L304.32-1.54L304.32-1.54Q303.68-2.37 303.68-3.81L303.68-3.81L303.68-3.81Q303.68-5.25 304.32-7.30L304.32-7.30L304.32-7.30Q304.96-9.34 307.84-13.95L307.84-13.95L307.84-13.95Q308.54-15.10 308.54-15.78L308.54-15.78L308.54-15.78Q308.54-16.45 307.46-16.45L307.46-16.45L307.46-16.45Q306.37-16.45 303.30-13.57L303.30-13.57L303.30-13.57Q298.69-9.34 294.40-0.90L294.40-0.90L294.40-0.90Q294.02-0.26 293.54-0.10L293.54-0.10L293.54-0.10Q293.06 0.06 291.65 0.13L291.65 0.13L291.65 0.13Q290.24 0.19 289.79 0.45L289.79 0.45L289.79 0.45Q290.82-1.60 293.82-7.94L293.82-7.94L293.82-7.94Q299.20-19.14 300.86-20.74L300.86-20.74L300.86-20.74Q301.63-21.50 302.98-21.50L302.98-21.50L302.98-21.50Q303.23-21.50 304.29-21.31L304.29-21.31L304.29-21.31Q305.34-21.12 305.86-21.25L305.86-21.25L305.86-21.25Q303.49-19.97 298.11-9.22L298.11-9.22L298.11-9.22Q301.12-12.93 303.58-15.14L303.58-15.14L303.58-15.14Q306.05-17.34 309.50-19.23L309.50-19.23L309.50-19.23Q312.96-21.12 314.56-21.12L314.56-21.12L314.56-21.12Q314.94-21.12 315.26-20.99ZM322.82-1.22L322.82-1.22L322.82-1.22Q323.65-1.09 323.97-1.09L323.97-1.09L323.97-1.09Q326.53-1.09 329.02-4.10L329.02-4.10L329.02-4.10Q330.37-5.76 333.82-12.48L333.82-12.48L333.82-12.48Q333.95-12.80 334.27-12.80L334.27-12.80L334.27-12.80Q334.85-12.86 334.85-12.35L334.85-12.35L334.85-12.35Q334.85-12.22 334.56-11.62L334.56-11.62L334.56-11.62Q334.27-11.01 334.02-10.40L334.02-10.40L334.02-10.40Q333.76-9.79 333.18-8.64L333.18-8.64L333.18-8.64Q332.61-7.49 332.19-6.78L332.19-6.78L332.19-6.78Q331.78-6.08 331.14-5.06L331.14-5.06L331.14-5.06Q330.50-4.03 329.86-3.46L329.86-3.46L328.51-2.05L328.51-2.05Q327.42-0.96 325.95-0.51L325.95-0.51L325.95-0.51Q323.58 0.26 321.34-0.38L321.34-0.38L321.34-0.38Q319.87 0.26 318.72 0.26L318.72 0.26L318.72 0.26Q314.18 0.26 313.22-3.33L313.22-3.33L313.22-3.33Q313.02-4.16 313.02-5.34L313.02-5.34L313.02-5.34Q313.02-6.53 313.82-7.62L313.82-7.62L313.82-7.62Q314.62-8.70 315.52-8.77L315.52-8.77L315.52-8.77Q318.78-14.98 321.09-19.97L321.09-19.97L321.09-19.97Q323.65-25.41 327.04-25.41L327.04-25.41L327.04-25.41Q327.94-25.41 328.80-24.99L328.80-24.99L328.80-24.99Q329.66-24.58 329.44-24.06L329.44-24.06L329.44-24.06Q329.22-23.55 328.51-23.87L328.51-23.87L328.51-23.87Q327.81-24.19 327.30-24.19L327.30-24.19L327.30-24.19Q326.78-24.19 326.40-24L326.40-24L326.40-24Q324.22-22.98 324.22-19.58L324.22-19.58L324.22-19.58Q324.22-17.79 324.74-16.64L324.74-16.64L324.74-16.64Q325.25-15.49 325.89-14.14L325.89-14.14L325.89-14.14Q327.36-10.82 327.36-8.70L327.36-8.70L327.36-8.70Q327.36-6.59 326.02-4.54L326.02-4.54L326.02-4.54Q324.67-2.50 322.82-1.22ZM320.64-1.66L320.64-1.66L320.64-1.66Q323.46-3.84 323.46-8.70L323.46-8.70L323.46-8.70Q323.46-10.69 323.01-14.14L323.01-14.14L323.01-14.14Q322.56-17.60 322.56-18.82L322.56-18.82L322.56-18.82Q322.56-20.03 322.62-20.48L322.62-20.48L322.62-20.48Q317.76-10.75 316.61-8.64L316.61-8.64L316.61-8.64Q317.95-8.64 317.95-6.72L317.95-6.72L317.95-6.72Q317.95-2.94 320.64-1.66ZM315.84-3.39L315.84-3.39L315.84-3.39Q315.84-3.01 315.90-2.56L315.90-2.56L315.90-2.56Q316.42-0.83 318.27-0.83L318.27-0.83L318.27-0.83Q319.04-0.83 319.55-1.09L319.55-1.09L319.55-1.09Q317.18-2.56 316.99-5.89L316.99-5.89L316.99-5.89Q315.84-4.74 315.84-3.39ZM362.24-39.68L362.24-39.68L364.22-39.62L364.54-39.49L364.67-39.10L364.67-39.10Q364.10-37.57 353.89-22.53L353.89-22.53L353.89-22.53Q343.68-7.49 343.23-6.85L343.23-6.85L342.59-6.91L342.66-7.36L358.91-38.34L358.91-38.34Q359.62-39.68 362.24-39.68ZM341.95 0.13L341.95 0.13L341.95 0.13Q341.06 0.90 339.97 0.90L339.97 0.90L339.97 0.90Q338.88 0.90 338.30 0.22L338.30 0.22L338.30 0.22Q337.73-0.45 337.73-0.96L337.73-0.96L337.73-0.96Q337.73-2.69 338.75-3.52L338.75-3.52L338.75-3.52Q339.78-4.35 340.86-4.35L340.86-4.35L340.86-4.35Q341.95-4.35 342.53-3.68L342.53-3.68L342.53-3.68Q343.10-3.01 343.10-2.50L343.10-2.50L343.10-2.50Q343.10-1.98 342.98-1.31L342.98-1.31L342.98-1.31Q342.85-0.64 341.95 0.13Z" fill="url(#editing-rainbow-gradient)"></path></g></g><style>text {
  font-size: 64px;
  font-family: Arial Black;
  dominant-baseline: central;
  text-anchor: middle;
}</style></svg>